<svg width="43" height="45" viewBox="0 0 43 45" fill="none" xmlns="http://www.w3.org/2000/svg">
<g filter="url(#filter0_d)">
<path d="M35.1473 13.6477L35.1255 13.626C35.1238 13.6247 35.1224 13.6231 35.1215 13.6212L21.5006 0L7.87983 13.6209C7.87826 13.6225 7.8758 13.6256 7.8758 13.6256L7.85333 13.6474C5.77053 15.7419 4.44759 18.4725 4.09482 21.4052C3.74205 24.3379 4.3797 27.3044 5.90639 29.8331C7.43309 32.3619 9.76122 34.3077 12.5207 35.3612C15.2802 36.4147 18.3126 36.5157 21.136 35.6477C21.3735 35.5751 21.6275 35.5751 21.8651 35.6477C24.6882 36.5153 27.7205 36.4144 30.4798 35.3607C33.2391 34.307 35.567 32.3613 37.0936 29.8328C38.6202 27.3042 39.2579 24.3379 38.9053 21.4054C38.5526 18.4728 37.2299 15.7422 35.1473 13.6477ZM12.7232 22.6298C12.6569 22.6961 12.6043 22.7749 12.5684 22.8615C12.5326 22.948 12.5141 23.0408 12.5141 23.1346C12.5384 25.5386 13.2178 27.8904 14.4792 29.9371C14.5079 29.9835 14.5211 30.0379 14.517 30.0922C14.513 30.1465 14.4918 30.1982 14.4566 30.2399C14.4213 30.2816 14.3738 30.311 14.3209 30.324C14.2679 30.337 14.2122 30.333 14.1616 30.3124C13.2133 29.9135 12.3518 29.3336 11.6253 28.6053C10.1365 27.1162 9.29946 25.097 9.2981 22.9912C9.29675 20.8855 10.1312 18.8652 11.6181 17.3743L21.5006 7.49273L31.3826 17.3743C32.8698 18.865 33.7045 20.8853 33.703 22.9912C33.7018 25.097 32.8647 27.1162 31.3757 28.6053C30.6492 29.3336 29.7877 29.9135 28.8396 30.3124C28.7889 30.333 28.7332 30.337 28.6802 30.324C28.6273 30.311 28.5798 30.2814 28.5445 30.2399C28.5093 30.1982 28.488 30.1465 28.484 30.092C28.4799 30.0377 28.4931 29.9833 28.5218 29.9369C29.7835 27.8904 30.4633 25.5386 30.4879 23.1346C30.4879 23.0408 30.4692 22.948 30.4332 22.8613C30.3971 22.7746 30.3444 22.696 30.2779 22.6296L25.6037 17.6717C25.557 17.6329 25.4985 17.6116 25.4378 17.6116C25.3773 17.6116 25.3186 17.6329 25.2721 17.6717C25.2255 17.7104 25.1942 17.7644 25.1833 17.824C25.1724 17.8837 25.1828 17.945 25.2127 17.9978C27.0281 21.283 25.467 26.0017 22.8637 28.6053L22.85 28.6191C22.4907 28.9745 22.0056 29.1738 21.5002 29.1736C20.9948 29.1734 20.5098 28.9738 20.1508 28.6182L20.1382 28.6053C17.5339 26.0017 15.9736 21.2835 17.7893 17.9985C17.8192 17.9457 17.8296 17.8844 17.8187 17.8247C17.8079 17.7651 17.7764 17.7111 17.7299 17.6724C17.6834 17.6336 17.6247 17.6123 17.5642 17.6123C17.5036 17.6123 17.4449 17.6336 17.3984 17.6724L12.7232 22.6298Z" fill="#F53838"/>
<path d="M13.0819 22.9782L13.0767 22.9834C13.057 23.0032 13.0411 23.0268 13.0303 23.0529L13.0303 23.053C13.0199 23.0781 13.0143 23.1053 13.0141 23.1327C13.038 25.4446 13.6916 27.7062 14.9047 29.6745L13.0819 22.9782ZM13.0819 22.9782L13.087 22.9729M13.0819 22.9782L13.087 22.9729M13.087 22.9729L16.8227 19.0116C16.3694 20.4996 16.4269 22.1331 16.8218 23.681C17.3316 25.6798 18.416 27.59 19.7833 28.9576C19.7838 28.9581 19.7842 28.9585 19.7846 28.9589L19.7946 28.9691L19.7946 28.9691L19.7989 28.9734C20.2516 29.4217 20.8629 29.6734 21.5001 29.6736C22.1372 29.6738 22.7486 29.4226 23.2016 28.9745L23.2035 28.9726L23.2173 28.9589L23.2173 28.9589C24.5848 27.5912 25.6696 25.6803 26.1797 23.6807C26.5746 22.1328 26.6324 20.4992 26.1792 19.0111L29.9141 22.9726L29.9194 22.9782L29.9248 22.9837C29.945 23.0038 29.9607 23.0274 29.9715 23.0532C29.9822 23.0789 29.9876 23.106 29.9879 23.1328L13.087 22.9729ZM13.9678 30.7733L13.9678 30.7733C12.9596 30.3492 12.0437 29.7327 11.2713 28.9585C9.68905 27.3757 8.79954 25.2296 8.7981 22.9916C8.79666 20.7533 9.68358 18.606 11.2641 17.0212L11.2646 17.0207L21.147 7.13916L21.5006 6.78565L21.8541 7.13917L31.7361 17.0207L31.7365 17.0211C33.3173 18.6057 34.2045 20.7531 34.203 22.9915L13.9678 30.7733ZM13.9678 30.7733L13.973 30.7754M13.9678 30.7733L13.973 30.7754M13.973 30.7754C14.1214 30.8359 14.2849 30.8477 14.4402 30.8096C14.5952 30.7715 14.7347 30.6854 14.8384 30.5628M13.973 30.7754L14.8384 30.5628M29.0278 30.7757L29.0278 30.7756C28.8797 30.8358 28.7163 30.8477 28.5609 30.8095C28.4049 30.7712 28.2664 30.6845 28.1638 30.5641L28.1623 30.5624C28.0598 30.4409 27.9973 30.2896 27.9853 30.1291C27.9853 30.1291 27.9853 30.1291 27.9853 30.129L28.484 30.092L29.0278 30.7757ZM29.0278 30.7757L29.0335 30.7733M29.0278 30.7757L29.0335 30.7733M29.0335 30.7733C30.0413 30.3493 30.957 29.7329 31.7293 28.9589L29.0335 30.7733ZM17.8187 17.8247C17.8296 17.8844 17.8192 17.9457 17.7893 17.9985L17.8187 17.8247ZM17.8187 17.8247C17.8079 17.7651 17.7764 17.7111 17.7299 17.6724L17.8187 17.8247ZM14.8384 30.5628C14.9416 30.4407 15.0037 30.2891 15.0156 30.1295C15.0276 29.97 14.9888 29.8108 14.9048 29.6747L14.8384 30.5628ZM8.25336 13.9545L21.5006 0.707113L34.752 13.9588C34.7612 13.9691 34.7708 13.9789 34.7807 13.9882L34.7928 14.0003C34.793 14.0005 34.7932 14.0007 34.7934 14.0009C36.797 16.0163 38.0695 18.6436 38.4088 21.4651C38.7481 24.2869 38.1345 27.1412 36.6655 29.5744C35.1966 32.0075 32.9566 33.8797 30.3014 34.8936C27.6463 35.9075 24.7285 36.0046 22.012 35.1698L22.0113 35.1696C21.6784 35.0678 21.3226 35.0678 20.9898 35.1696L20.989 35.1698C18.2723 36.005 15.3543 35.9078 12.699 34.8941C10.0437 33.8804 7.8035 32.008 6.33443 29.5747C4.86537 27.1414 4.25179 24.2869 4.59124 21.4649C4.93051 18.6444 6.20231 16.0182 8.2046 14.0032L8.2237 13.9847L8.24838 13.9608L8.25336 13.9545ZM31.7297 28.9585C33.312 27.3757 34.2017 25.2297 34.203 22.9916L31.7297 28.9585Z" stroke="black"/>
</g>
<defs>
<filter id="filter0_d" x="0" y="0" width="43" height="44.2323" filterUnits="userSpaceOnUse" color-interpolation-filters="sRGB">
<feFlood flood-opacity="0" result="BackgroundImageFix"/>
<feColorMatrix in="SourceAlpha" type="matrix" values="0 0 0 0 0 0 0 0 0 0 0 0 0 0 0 0 0 0 127 0"/>
<feOffset dy="4"/>
<feGaussianBlur stdDeviation="2"/>
<feColorMatrix type="matrix" values="0 0 0 0 0 0 0 0 0 0 0 0 0 0 0 0 0 0 0.25 0"/>
<feBlend mode="normal" in2="BackgroundImageFix" result="effect1_dropShadow"/>
<feBlend mode="normal" in="SourceGraphic" in2="effect1_dropShadow" result="shape"/>
</filter>
</defs>
</svg>
